<mxfile host="65bd71144e">
    <diagram id="Xqq21LJjN4TKFIUKVtSz" name="Page-1">
        <mxGraphModel dx="832" dy="568" grid="1" gridSize="10" guides="1" tooltips="1" connect="1" arrows="1" fold="1" page="1" pageScale="1" pageWidth="850" pageHeight="1100" math="0" shadow="0">
            <root>
                <mxCell id="0"/>
                <mxCell id="1" parent="0"/>
                <mxCell id="2" value="" style="rounded=0;whiteSpace=wrap;html=1;" parent="1" vertex="1">
                    <mxGeometry x="40" y="40" width="640" height="720" as="geometry"/>
                </mxCell>
                <mxCell id="4" value="Nav bar" style="rounded=0;whiteSpace=wrap;html=1;fillColor=default;" parent="1" vertex="1">
                    <mxGeometry x="430" y="40" width="250" height="60" as="geometry"/>
                </mxCell>
                <mxCell id="5" value="Website name" style="rounded=0;whiteSpace=wrap;html=1;fillColor=default;" parent="1" vertex="1">
                    <mxGeometry x="40" y="40" width="120" height="60" as="geometry"/>
                </mxCell>
                <mxCell id="6" value="About me" style="rounded=0;whiteSpace=wrap;html=1;fillColor=default;" parent="1" vertex="1">
                    <mxGeometry x="40" y="200" width="120" height="60" as="geometry"/>
                </mxCell>
                <mxCell id="7" value="Image" style="rounded=0;whiteSpace=wrap;html=1;fillColor=#d80073;fontColor=#ffffff;strokeColor=#A50040;" parent="1" vertex="1">
                    <mxGeometry x="200" y="200" width="120" height="120" as="geometry"/>
                </mxCell>
                <mxCell id="8" value="Brief explanation about me" style="rounded=0;whiteSpace=wrap;html=1;fillColor=default;" parent="1" vertex="1">
                    <mxGeometry x="320" y="200" width="320" height="120" as="geometry"/>
                </mxCell>
                <mxCell id="9" value="Work" style="rounded=0;whiteSpace=wrap;html=1;fillColor=default;" parent="1" vertex="1">
                    <mxGeometry x="40" y="320" width="120" height="60" as="geometry"/>
                </mxCell>
                <mxCell id="10" value="Project 1" style="rounded=0;whiteSpace=wrap;html=1;fillColor=default;" parent="1" vertex="1">
                    <mxGeometry x="200" y="320" width="440" height="100" as="geometry"/>
                </mxCell>
                <mxCell id="15" value="Project 2" style="rounded=0;whiteSpace=wrap;html=1;fillColor=default;" parent="1" vertex="1">
                    <mxGeometry x="200" y="420" width="220" height="70" as="geometry"/>
                </mxCell>
                <mxCell id="16" value="Project 4" style="rounded=0;whiteSpace=wrap;html=1;fillColor=default;" parent="1" vertex="1">
                    <mxGeometry x="420" y="420" width="220" height="70" as="geometry"/>
                </mxCell>
                <mxCell id="18" value="Contace me" style="rounded=0;whiteSpace=wrap;html=1;fillColor=default;" parent="1" vertex="1">
                    <mxGeometry x="200" y="570" width="440" height="60" as="geometry"/>
                </mxCell>
                <mxCell id="19" value="Resume" style="rounded=0;whiteSpace=wrap;html=1;fillColor=default;" parent="1" vertex="1">
                    <mxGeometry x="200" y="630" width="440" height="60" as="geometry"/>
                </mxCell>
                <mxCell id="20" value="Footer" style="rounded=0;whiteSpace=wrap;html=1;fillColor=default;" parent="1" vertex="1">
                    <mxGeometry x="40" y="700" width="640" height="60" as="geometry"/>
                </mxCell>
                <mxCell id="21" value="Project 3" style="rounded=0;whiteSpace=wrap;html=1;fillColor=default;" parent="1" vertex="1">
                    <mxGeometry x="200" y="490" width="220" height="70" as="geometry"/>
                </mxCell>
                <mxCell id="22" value="Project 5" style="rounded=0;whiteSpace=wrap;html=1;fillColor=default;" parent="1" vertex="1">
                    <mxGeometry x="420" y="490" width="220" height="70" as="geometry"/>
                </mxCell>
            </root>
        </mxGraphModel>
    </diagram>
</mxfile>
